HIERARCHY
ROOT Root
{
	OFFSET 0.00000 0.00000 0.00000
	CHANNELS 6 Xposition Yposition Zposition Zrotation Xrotation Yrotation
	JOINT Hip
	{
		OFFSET 0 0 0	
		CHANNELS 3 Zrotation Xrotation Yrotation
		JOINT Tummy
		{
			OFFSET 0 0.04 0	
			CHANNELS 3 Zrotation Xrotation Yrotation
			JOINT ChestBottom
			{
				OFFSET 0 0.194 0	
				CHANNELS 3 Zrotation Xrotation Yrotation
				JOINT ChestTop
				{
					OFFSET 0 0.166 0	
					CHANNELS 3 Zrotation Xrotation Yrotation
					JOINT LeftCollar
					{
						OFFSET 0 0.1 0	
						CHANNELS 3 Zrotation Xrotation Yrotation
						JOINT LeftUpperArm
						{
							OFFSET 0.156 -0.02 0.03	
							CHANNELS 3 Zrotation Xrotation Yrotation
							JOINT LeftForeArm
							{
								OFFSET 0.035 -0.27 -0.01	
								CHANNELS 3 Zrotation Xrotation Yrotation
								JOINT LeftHand
								{
									OFFSET 0.01 -0.27 0.01	
									CHANNELS 3 Zrotation Xrotation Yrotation
									End Site
									{
										OFFSET 0 -0.15 0
									}
								}
							}
						}
					}
					JOINT RightCollar
					{
						OFFSET 0 0.1 0	
						CHANNELS 3 Zrotation Xrotation Yrotation
						JOINT RightUpperArm
						{
							OFFSET -0.156 -0.02 0.03	
							CHANNELS 3 Zrotation Xrotation Yrotation
							JOINT RightForeArm
							{
								OFFSET -0.035 -0.27 -0.01	
								CHANNELS 3 Zrotation Xrotation Yrotation
								JOINT RightHand
								{
									OFFSET -0.01 -0.27 0.01	
									CHANNELS 3 Zrotation Xrotation Yrotation
									End Site
									{
										OFFSET 0 -0.15 0
									}
								}
							}
						}
					}
					JOINT Neck
					{
						OFFSET 0 0.1 0	
						CHANNELS 3 Zrotation Xrotation Yrotation
						JOINT Head
						{
							OFFSET 0 0.127 0.03	
							CHANNELS 3 Zrotation Xrotation Yrotation
							End Site
							{
								OFFSET 0 0.127 0.03
							}
						}
					}
				}
			}
		}
	}
	JOINT LeftHip
	{
		OFFSET 0 0 0	
		CHANNELS 3 Zrotation Xrotation Yrotation
		JOINT LeftThigh
		{
			OFFSET 0.088 -0.06 0	
			CHANNELS 3 Zrotation Xrotation Yrotation
			JOINT LeftLowerLeg
			{
				OFFSET 0 -0.39 0.02	
				CHANNELS 3 Zrotation Xrotation Yrotation
				JOINT LeftFootTop
				{
					OFFSET 0 -0.43 -0.02	
					CHANNELS 3 Zrotation Xrotation Yrotation
					JOINT LeftFootFront
					{
						OFFSET 0 -0.07 0.085	
						CHANNELS 3 Zrotation Xrotation Yrotation
						End Site
						{
							OFFSET 0 -0.005 0.09
						}
					}
				}
				JOINT LeftHeel
				{
					OFFSET 0 -0.43 -0.02	
					CHANNELS 3 Zrotation Xrotation Yrotation
					End Site
					{
						OFFSET 0 -0.075 -0.05
					}
				}
			}
		}
	}
	JOINT RightHip
	{
		OFFSET 0 0 0	
		CHANNELS 3 Zrotation Xrotation Yrotation
		JOINT RightThigh
		{
			OFFSET -0.088 -0.06 0	
			CHANNELS 3 Zrotation Xrotation Yrotation
			JOINT RightLowerLeg
			{
				OFFSET 0 -0.39 0.02	
				CHANNELS 3 Zrotation Xrotation Yrotation
				JOINT RightFootTop
				{
					OFFSET 0 -0.43 -0.02	
					CHANNELS 3 Zrotation Xrotation Yrotation
					JOINT RightFootFront
					{
						OFFSET 0 -0.07 0.085	
						CHANNELS 3 Zrotation Xrotation Yrotation
						End Site
						{
							OFFSET 0 -0.005 0.09
						}
					}
				}
				JOINT RightHeel
				{
					OFFSET 0 -0.43 -0.02	
					CHANNELS 3 Zrotation Xrotation Yrotation
					End Site
					{
						OFFSET 0 -0.075 -0.05
					}
				}
			}
		}
	}
}
MOTION
Frames: 24
Frame Time: 0.05
0 0.955 0 -0 0 -0 -0 0 -0 -0 0 -0 0.90753 14.671 7.3791 -0 0 -0 -0 0 -0 8.3954 -15.546 23.324 -22.599 -48.011 -37.163 -0 0 -0 -0 0 -0 -22.548 -28.857 17.175 61.543 -35.476 0.02633 -0 0 -0 7.9791 -19.541 29.93 7.9791 -19.541 29.93 -0 0 -0 -0 0 -0 -0 0 -0 -0 0 -0 -0 0 -0 -0 0 -0 -0 0 -0 -0 0 -0 -0 0 -0 -0 0 -0 -0 0 -0 -0 0 -0 
0 0.955 0 -0 0 -0 -0 0 -0 -0 0 -0 0.90577 14.66 7.3517 -0 0 -0 -0 0 -0 8.4408 -15.487 23.36 -22.658 -48.035 -37.144 -0 0 -0 -0 0 -0 -22.536 -28.826 17.175 61.099 -35.795 1.6296 -0 0 -0 7.9883 -19.525 29.914 7.9883 -19.525 29.914 -0 0 -0 -0 0 -0 -0 0 -0 -0 0 -0 -0 0 -0 -0 0 -0 -0 0 -0 -0 0 -0 -0 0 -0 -0 0 -0 -0 0 -0 -0 0 -0 
0 0.955 0 -0 0 -0 -0 0 -0 -0 0 -0 0.9204 14.661 7.3156 -0 0 -0 -0 0 -0 8.4693 -15.434 23.407 -22.725 -48.026 -37.105 -0 0 -0 -0 0 -0 -22.577 -28.752 17.16 60.66 -36.192 3.3963 -0 0 -0 8.016 -19.524 29.91 8.016 -19.524 29.91 -0 0 -0 -0 0 -0 -0 0 -0 -0 0 -0 -0 0 -0 -0 0 -0 -0 0 -0 -0 0 -0 -0 0 -0 -0 0 -0 -0 0 -0 -0 0 -0 
0 0.955 0 -0 0 -0 -0 0 -0 -0 0 -0 0.93342 14.698 7.3422 -0 0 -0 -0 0 -0 8.4443 -15.412 23.369 -22.773 -48.065 -37.106 -0 0 -0 -0 0 -0 -22.696 -28.709 17.213 60.156 -36.774 5.1082 -0 0 -0 8.034 -19.587 29.853 8.034 -19.587 29.853 -0 0 -0 -0 0 -0 -0 0 -0 -0 0 -0 -0 0 -0 -0 0 -0 -0 0 -0 -0 0 -0 -0 0 -0 -0 0 -0 -0 0 -0 -0 0 -0 
0 0.955 0 -0 0 -0 -0 0 -0 -0 0 -0 0.9802 14.662 7.3215 -0 0 -0 -0 0 -0 8.4166 -15.323 23.311 -22.763 -48.112 -37.022 -0 0 -0 -0 0 -0 -22.734 -28.58 17.597 59.405 -37.704 7.3912 -0 0 -0 8.0531 -19.594 29.807 8.0531 -19.594 29.807 -0 0 -0 -0 0 -0 -0 0 -0 -0 0 -0 -0 0 -0 -0 0 -0 -0 0 -0 -0 0 -0 -0 0 -0 -0 0 -0 -0 0 -0 -0 0 -0 
0 0.955 0 -0 0 -0 -0 0 -0 -0 0 -0 0.97616 14.642 7.2821 -0 0 -0 -0 0 -0 8.4367 -15.263 23.374 -22.803 -48.101 -37.008 -0 0 -0 -0 0 -0 -22.802 -28.534 17.906 58.674 -38.466 9.9308 -0 0 -0 8.1014 -19.593 29.786 8.1014 -19.593 29.786 -0 0 -0 -0 0 -0 -0 0 -0 -0 0 -0 -0 0 -0 -0 0 -0 -0 0 -0 -0 0 -0 -0 0 -0 -0 0 -0 -0 0 -0 -0 0 -0 
0 0.955 0 -0 0 -0 -0 0 -0 -0 0 -0 0.97137 14.584 7.2948 -0 0 -0 -0 0 -0 8.4421 -15.196 23.365 -22.859 -48.107 -37.055 -0 0 -0 -0 0 -0 -22.802 -28.392 18.381 57.71 -39.279 12.437 -0 0 -0 8.1523 -19.586 29.758 8.1523 -19.586 29.758 -0 0 -0 -0 0 -0 -0 0 -0 -0 0 -0 -0 0 -0 -0 0 -0 -0 0 -0 -0 0 -0 -0 0 -0 -0 0 -0 -0 0 -0 -0 0 -0 
0 0.955 0 -0 0 -0 -0 0 -0 -0 0 -0 1.0156 14.578 7.3125 -0 0 -0 -0 0 -0 8.3863 -15.203 23.322 -22.859 -48.112 -37.073 -0 0 -0 -0 0 -0 -22.912 -28.258 18.696 57.02 -39.866 14.503 -0 0 -0 8.176 -19.565 29.746 8.176 -19.565 29.746 -0 0 -0 -0 0 -0 -0 0 -0 -0 0 -0 -0 0 -0 -0 0 -0 -0 0 -0 -0 0 -0 -0 0 -0 -0 0 -0 -0 0 -0 -0 0 -0 
0 0.955 0 -0 0 -0 -0 0 -0 -0 0 -0 1.0431 14.517 7.3513 -0 0 -0 -0 0 -0 8.3291 -15.158 23.223 -22.773 -48.124 -37.032 -0 0 -0 -0 0 -0 -23.015 -28.08 18.934 56.476 -40.448 16.378 -0 0 -0 8.1531 -19.504 29.703 8.1531 -19.504 29.703 -0 0 -0 -0 0 -0 -0 0 -0 -0 0 -0 -0 0 -0 -0 0 -0 -0 0 -0 -0 0 -0 -0 0 -0 -0 0 -0 -0 0 -0 -0 0 -0 
0 0.955 0 -0 0 -0 -0 0 -0 -0 0 -0 1.0454 14.476 7.3134 -0 0 -0 -0 0 -0 8.3365 -15.089 23.25 -22.757 -48.127 -37.02 -0 0 -0 -0 0 -0 -23.073 -28.019 19.301 55.915 -40.896 17.717 -0 0 -0 8.1733 -19.448 29.731 8.1733 -19.448 29.731 -0 0 -0 -0 0 -0 -0 0 -0 -0 0 -0 -0 0 -0 -0 0 -0 -0 0 -0 -0 0 -0 -0 0 -0 -0 0 -0 -0 0 -0 -0 0 -0 
0 0.955 0 -0 0 -0 -0 0 -0 -0 0 -0 1.0814 14.429 7.2782 -0 0 -0 -0 0 -0 8.3348 -15.01 23.298 -22.801 -48.121 -37.025 -0 0 -0 -0 0 -0 -23.153 -27.898 19.687 55.546 -41.371 19.002 -0 0 -0 8.2092 -19.401 29.774 8.2092 -19.401 29.774 -0 0 -0 -0 0 -0 -0 0 -0 -0 0 -0 -0 0 -0 -0 0 -0 -0 0 -0 -0 0 -0 -0 0 -0 -0 0 -0 -0 0 -0 -0 0 -0 
0 0.955 0 -0 0 -0 -0 0 -0 -0 0 -0 1.0782 14.411 7.2695 -0 0 -0 -0 0 -0 8.3411 -14.969 23.302 -22.803 -48.132 -37.017 -0 0 -0 -0 0 -0 -23.169 -27.855 19.914 55.236 -41.603 20.046 -0 0 -0 8.2414 -19.4 29.782 8.2414 -19.4 29.782 -0 0 -0 -0 0 -0 -0 0 -0 -0 0 -0 -0 0 -0 -0 0 -0 -0 0 -0 -0 0 -0 -0 0 -0 -0 0 -0 -0 0 -0 -0 0 -0 
0 0.955 0 -0 0 -0 -0 0 -0 -0 0 -0 1.0713 14.362 7.3133 -0 0 -0 -0 0 -0 8.32 -14.915 23.262 -22.817 -48.13 -37.051 -0 0 -0 -0 0 -0 -23.243 -27.803 19.937 55.001 -41.554 20.733 -0 0 -0 8.2678 -19.372 29.765 8.2678 -19.372 29.765 -0 0 -0 -0 0 -0 -0 0 -0 -0 0 -0 -0 0 -0 -0 0 -0 -0 0 -0 -0 0 -0 -0 0 -0 -0 0 -0 -0 0 -0 -0 0 -0 
0 0.955 0 -0 0 -0 -0 0 -0 -0 0 -0 1.0468 14.478 7.3402 -0 0 -0 -0 0 -0 8.2994 -15.02 23.245 -22.822 -48.145 -37.042 -0 0 -0 -0 0 -0 -23.316 -27.886 19.928 54.883 -41.587 20.993 -0 0 -0 8.2702 -19.396 29.785 8.2702 -19.396 29.785 -0 0 -0 -0 0 -0 -0 0 -0 -0 0 -0 -0 0 -0 -0 0 -0 -0 0 -0 -0 0 -0 -0 0 -0 -0 0 -0 -0 0 -0 -0 0 -0 
0 0.955 0 -0 0 -0 -0 0 -0 -0 0 -0 1.0754 14.533 7.3086 -0 0 -0 -0 0 -0 8.2407 -15.035 23.273 -22.85 -48.162 -37.041 -0 0 -0 -0 0 -0 -23.475 -27.925 19.916 54.92 -41.587 21.177 -0 0 -0 8.2801 -19.358 29.82 8.2801 -19.358 29.82 -0 0 -0 -0 0 -0 -0 0 -0 -0 0 -0 -0 0 -0 -0 0 -0 -0 0 -0 -0 0 -0 -0 0 -0 -0 0 -0 -0 0 -0 -0 0 -0 
0 0.955 0 -0 0 -0 -0 0 -0 -0 0 -0 1.1546 14.562 7.2136 -0 0 -0 -0 0 -0 8.1703 -15.026 23.333 -22.855 -48.176 -37.021 -0 0 -0 -0 0 -0 -23.571 -27.964 20 54.908 -41.357 21.17 -0 0 -0 8.2752 -19.305 29.892 8.2752 -19.305 29.892 -0 0 -0 -0 0 -0 -0 0 -0 -0 0 -0 -0 0 -0 -0 0 -0 -0 0 -0 -0 0 -0 -0 0 -0 -0 0 -0 -0 0 -0 -0 0 -0 
0 0.955 0 -0 0 -0 -0 0 -0 -0 0 -0 1.2427 14.63 7.1712 -0 0 -0 -0 0 -0 8.0478 -15.053 23.358 -22.841 -48.197 -37.022 -0 0 -0 -0 0 -0 -23.796 -28.153 19.574 55.097 -40.899 20.854 -0 0 -0 8.247 -19.268 29.944 8.247 -19.268 29.944 -0 0 -0 -0 0 -0 -0 0 -0 -0 0 -0 -0 0 -0 -0 0 -0 -0 0 -0 -0 0 -0 -0 0 -0 -0 0 -0 -0 0 -0 -0 0 -0 
0 0.955 0 -0 0 -0 -0 0 -0 -0 0 -0 1.277 14.669 7.1813 -0 0 -0 -0 0 -0 7.9529 -15.074 23.348 -22.835 -48.2 -37.035 -0 0 -0 -0 0 -0 -23.982 -28.293 19.182 55.271 -40.342 20.465 -0 0 -0 8.258 -19.237 29.977 8.258 -19.237 29.977 -0 0 -0 -0 0 -0 -0 0 -0 -0 0 -0 -0 0 -0 -0 0 -0 -0 0 -0 -0 0 -0 -0 0 -0 -0 0 -0 -0 0 -0 -0 0 -0 
0 0.955 0 -0 0 -0 -0 0 -0 -0 0 -0 1.3537 14.667 7.1816 -0 0 -0 -0 0 -0 7.831 -15.057 23.347 -22.815 -48.2 -37.045 -0 0 -0 -0 0 -0 -24.202 -28.263 18.857 55.415 -40.106 19.849 -0 0 -0 8.2743 -19.201 30.033 8.2742 -19.201 30.033 -0 0 -0 -0 0 -0 -0 0 -0 -0 0 -0 -0 0 -0 -0 0 -0 -0 0 -0 -0 0 -0 -0 0 -0 -0 0 -0 -0 0 -0 -0 0 -0 
0 0.955 0 -0 0 -0 -0 0 -0 -0 0 -0 1.3795 14.658 7.2766 -0 0 -0 -0 0 -0 7.7434 -15.055 23.264 -22.786 -48.19 -37.043 -0 0 -0 -0 0 -0 -24.473 -28.113 18.34 55.514 -40.016 19.74 -0 0 -0 8.3195 -19.17 30.054 8.3195 -19.17 30.054 -0 0 -0 -0 0 -0 -0 0 -0 -0 0 -0 -0 0 -0 -0 0 -0 -0 0 -0 -0 0 -0 -0 0 -0 -0 0 -0 -0 0 -0 -0 0 -0 
0 0.955 0 -0 0 -0 -0 0 -0 -0 0 -0 1.433 14.651 7.2699 -0 0 -0 -0 0 -0 7.6716 -15.028 23.289 -22.749 -48.172 -37.026 -0 0 -0 -0 0 -0 -24.624 -27.923 18.225 55.201 -40.212 19.853 -0 0 -0 8.3873 -19.113 30.132 8.3873 -19.113 30.132 -0 0 -0 -0 0 -0 -0 0 -0 -0 0 -0 -0 0 -0 -0 0 -0 -0 0 -0 -0 0 -0 -0 0 -0 -0 0 -0 -0 0 -0 -0 0 -0 
0 0.955 0 -0 0 -0 -0 0 -0 -0 0 -0 1.5096 14.704 7.2399 -0 0 -0 -0 0 -0 7.5664 -15.059 23.351 -22.718 -48.166 -37.024 -0 0 -0 -0 0 -0 -24.915 -27.862 18.04 55.125 -40.478 20.068 -0 0 -0 8.4041 -19.059 30.214 8.4041 -19.059 30.214 -0 0 -0 -0 0 -0 -0 0 -0 -0 0 -0 -0 0 -0 -0 0 -0 -0 0 -0 -0 0 -0 -0 0 -0 -0 0 -0 -0 0 -0 -0 0 -0 
0 0.955 0 -0 0 -0 -0 0 -0 -0 0 -0 1.5749 14.782 7.2379 -0 0 -0 -0 0 -0 7.4731 -15.106 23.395 -22.649 -48.114 -36.867 -0 0 -0 -0 0 -0 -25.19 -27.825 18.011 55.013 -40.8 20.364 -0 0 -0 8.4063 -19.031 30.286 8.4063 -19.031 30.286 -0 0 -0 -0 0 -0 -0 0 -0 -0 0 -0 -0 0 -0 -0 0 -0 -0 0 -0 -0 0 -0 -0 0 -0 -0 0 -0 -0 0 -0 -0 0 -0 
0 0.955 0 -0 0 -0 -0 0 -0 -0 0 -0 1.6038 14.915 7.3505 -0 0 -0 -0 0 -0 7.386 -15.168 23.327 -22.699 -48.137 -36.848 -0 0 -0 -0 0 -0 -25.449 -27.716 17.922 54.703 -41.031 20.801 -0 0 -0 8.4137 -19.046 30.32 8.4137 -19.046 30.32 -0 0 -0 -0 0 -0 -0 0 -0 -0 0 -0 -0 0 -0 -0 0 -0 -0 0 -0 -0 0 -0 -0 0 -0 -0 0 -0 -0 0 -0 -0 0 -0 
